<svg xmlns="http://www.w3.org/2000/svg" width="48" height="48" viewBox="0 0 48 48">
  <title>средства личной гигиены</title>
  <g>
    <path d="M24.006,28.592s-2.293,2.188-2.293,4.533a2.3,2.3,0,1,0,4.586,0C26.3,30.754,24.006,28.592,24.006,28.592Z" fill="#121212"/>
    <path d="M34.677,24.768l0-.012a10.459,10.459,0,0,0-5.288-9.035V11.243A3.5,3.5,0,0,0,27.1,7.971V3.128h1.243a1.045,1.045,0,1,0,0-2.09H26.081c-.009,0-.017-.005-.027-.005H22.518c-.009,0-.017.005-.027.005H20.728A4.8,4.8,0,0,0,17.736,0a4.746,4.746,0,0,0-4.2,2.02A1.045,1.045,0,1,0,15.2,3.274,2.694,2.694,0,0,1,17.736,2.09a2.741,2.741,0,0,1,1.886.751,1.047,1.047,0,0,0,.719.287h1.132v4.8a3.494,3.494,0,0,0-2.426,3.314v4.479a10.459,10.459,0,0,0-5.288,9.035l0,.012V46.955A1.045,1.045,0,0,0,14.8,48H33.632a1.045,1.045,0,0,0,1.045-1.045V24.768ZM15.848,25.813H32.587v12.9H15.848ZM25.009,3.128V7.742H23.563V3.128Zm-3.871,8.115a1.412,1.412,0,0,1,1.411-1.41h3.337a1.412,1.412,0,0,1,1.411,1.41v3.564a10.451,10.451,0,0,0-6.159,0Zm3.079,5.191a8.376,8.376,0,0,1,8.292,7.29H15.926A8.376,8.376,0,0,1,24.217,16.433ZM15.848,45.91V40.8H32.587V45.91Z" fill="#121212"/>
  </g>
</svg>
