<svg xmlns="http://www.w3.org/2000/svg" width="48" height="48" viewBox="0 0 48 48">
  <title>утюг</title>
  <path d="M45.807,13.693H29.3a8.022,8.022,0,0,0-2.171-5.246C24.559,5.883,20.414,5.91,17.393,5.9h-.484c-.35,0-6.113-.025-8.633-.036L8.74,2.09H19.567a1.045,1.045,0,1,0,0-2.09H6.891L5.632,10.242l-.425,3.451H2.193a2.192,2.192,0,0,0,0,4.385H13.96s3.862,4.1,8.59,9.11c-4.279,4.529-9.067,9.6-12.452,13.206a7.729,7.729,0,0,0-2.325,6.265v.3a1.045,1.045,0,1,0,2.09,0v-.3a5.713,5.713,0,0,1,1.758-4.827c3.362-3.579,8.109-8.61,12.366-13.114,4.25,4.5,9,9.536,12.4,13.118a5.656,5.656,0,0,1,1.755,4.8v.322a1.045,1.045,0,1,0,2.09,0v-.314a7.668,7.668,0,0,0-2.328-6.25c-3.415-3.6-8.2-8.677-12.475-13.2,4.744-5.02,8.609-9.112,8.609-9.112H45.807a2.192,2.192,0,1,0,0-4.385ZM17.4,7.993c2.8-.008,6.3-.016,8.254,1.934a5.83,5.83,0,0,1,1.553,3.766H7.313l.705-5.735c2.378.01,8.528.037,8.89.037Zm6.59,17.674c-3.041-3.224-5.676-6.019-7.156-7.589H31.164C29.671,19.655,27.029,22.449,23.988,25.667Z" fill="#121212"/>
</svg>
