<svg xmlns="http://www.w3.org/2000/svg" width="48" height="48" viewBox="0 0 48 48">
  <title>столовые приборы</title>
  <g>
    <path d="M17.8,11.349C17.8,6.961,16.095,0,11.519,0,6.773,0,5.238,7.646,5.238,11.349c0,8.741,3.307,10.786,5.275,11.23V46.955a1.045,1.045,0,1,0,2.09,0V22.571C15.877,21.845,17.8,17.773,17.8,11.349Zm-6.281,9.26c-2.624,0-4.19-3.461-4.19-9.26,0-3.323,1.4-9.259,4.191-9.259,2.962,0,4.19,6.031,4.19,9.259C15.71,17.061,14.1,20.609,11.519,20.609Z" fill="#121212"/>
    <path d="M42.687.676a1.011,1.011,0,0,0-.053-.1,1.024,1.024,0,0,0-.23-.3A1.027,1.027,0,0,0,42.2.133a.792.792,0,0,0-.111-.058,1.356,1.356,0,0,0-.41-.067,1.039,1.039,0,0,0-.322.065.99.99,0,0,0-.116.057,1.02,1.02,0,0,0-.2.134,1.027,1.027,0,0,0-.1.1c-.018.021-.042.034-.059.057-2.7,3.57-6.51,11.3-6.51,17.3,0,4.217,2.387,6.958,6.3,7.369V46.955a1.045,1.045,0,1,0,2.09,0V1.045A1.031,1.031,0,0,0,42.687.676ZM36.465,17.713c0-3.883,1.951-9.18,4.207-13.147V22.983C37.982,22.608,36.465,20.734,36.465,17.713Z" fill="#121212"/>
    <path d="M30.05,0A1.045,1.045,0,0,0,29,1.045V17.357c0,2.057-.819,3.576-1.938,4.153V1.045a1.045,1.045,0,1,0-2.09,0V21.511a4.532,4.532,0,0,1-2-4.153V1.045a1.045,1.045,0,0,0-2.09,0V17.357c0,3.82,2.055,5.85,4.09,6.364V46.955a1.045,1.045,0,1,0,2.09,0V23.721c2.035-.514,4.028-2.544,4.028-6.364V1.045A1.045,1.045,0,0,0,30.05,0Z" fill="#121212"/>
  </g>
</svg>
