<svg xmlns="http://www.w3.org/2000/svg" width="2000" height="2000" viewBox="0 0 2000 2000">
  <title>Логотип ТО САМОЕ МЕСТО_1</title>
  <g>
    <rect x="521.917" y="525.07" width="1003.384" height="1003.384" fill="none" stroke="#545454" stroke-miterlimit="10" stroke-width="18"/>
    <rect x="474.699" y="471.545" width="1003.384" height="1003.384" fill="none" stroke="#545454" stroke-miterlimit="10" stroke-width="18"/>
    <g>
      <path d="M601.74,1342.12l11.751,26.606h-5.428l-2.762-6.476H593.474l-2.571,6.476h-5.39l10.971-26.606Zm-6.7,16.227h8.59l-4.5-10.531Z" fill="#626160"/>
      <path d="M629.239,1342.12a8.569,8.569,0,0,1,6.065,2.162,7.25,7.25,0,0,1,2.333,5.57,7.163,7.163,0,0,1-2.361,5.58,8.932,8.932,0,0,1-6.228,2.134H624.1v11.16h-5.142V1342.12Zm-1.276,11.428a4.931,4.931,0,0,0,3.209-.943,3.391,3.391,0,0,0,1.152-2.79q0-3.675-4.723-3.676h-3.5v7.409Z" fill="#626160"/>
      <path d="M661.271,1342.12v4.019H649.216v6.99h11.541v4.019H649.216v7.561h12.322v4.019H644.073V1342.12Z" fill="#626160"/>
      <path d="M673.819,1342.12v11.2h13.808v-11.2h5.143v26.606h-5.143V1357.49H673.819v11.236h-5.142V1342.12Z" fill="#626160"/>
      <path d="M715.126,1342.12l9.085,22.321h3.047v9.161h-5.065v-4.876H703.7v4.876h-5.066v-9.161h3.028l8.514-22.321Zm-8.266,22.321h12.132l-6.323-16.379Z" fill="#626160"/>
      <path d="M746.605,1342.12l11.751,26.606h-5.429l-2.761-6.476H738.34l-2.571,6.476h-5.39l10.97-26.606Zm-6.7,16.227h8.589L744,1347.815Z" fill="#626160"/>
      <path d="M782.062,1342.12v10.646h.267a5.774,5.774,0,0,0,2.609-.533,5.265,5.265,0,0,0,1.676-1.581,15.46,15.46,0,0,0,1.562-2.913,14.667,14.667,0,0,1,2.028-3.543,5.561,5.561,0,0,1,2.248-1.581,11.117,11.117,0,0,1,4.58-.419v4.095a7.011,7.011,0,0,0-2.295.276,2.949,2.949,0,0,0-1.276.962,12.441,12.441,0,0,0-1.343,2.552q-1.5,3.6-3.942,4.533a9.311,9.311,0,0,1,3.381,2.5,25.777,25.777,0,0,1,3.209,4.913l3.6,6.7h-5.694l-3.275-6.247a20.661,20.661,0,0,0-2.219-3.447,7,7,0,0,0-2.152-1.8,6.627,6.627,0,0,0-2.962-.562v12.056H777V1342.12Z" fill="#626160"/>
      <path d="M814.056,1342.12a9.05,9.05,0,0,1,5.961,1.905,5.93,5.93,0,0,1,2.3,4.761,5.522,5.522,0,0,1-.962,3.219,6.537,6.537,0,0,1-2.79,2.209v.229a7.641,7.641,0,0,1,4.333,2.485,6.582,6.582,0,0,1,1.552,4.353,7.09,7.09,0,0,1-1.133,3.951,6.977,6.977,0,0,1-3.143,2.619,11.774,11.774,0,0,1-4.733.876H804.305V1342.12Zm-1.371,11.047a4.916,4.916,0,0,0,3.218-.972,3.309,3.309,0,0,0,1.182-2.7,3.019,3.019,0,0,0-1.086-2.447,4.313,4.313,0,0,0-2.856-.905h-3.7v7.028Zm1.2,11.541a6.617,6.617,0,0,0,3.942-.98,3.358,3.358,0,0,0,1.333-2.886,3.154,3.154,0,0,0-1.323-2.676,5.839,5.839,0,0,0-3.552-.98h-4.838v7.522Z" fill="#626160"/>
      <path d="M844.621,1342.12l11.751,26.606h-5.428l-2.762-6.476H836.355l-2.571,6.476h-5.39l10.971-26.606Zm-6.7,16.227h8.59l-4.5-10.531Z" fill="#626160"/>
      <path d="M872.12,1342.12a8.572,8.572,0,0,1,6.066,2.162,7.253,7.253,0,0,1,2.333,5.57,7.164,7.164,0,0,1-2.362,5.58,8.932,8.932,0,0,1-6.228,2.134h-4.951v11.16h-5.143V1342.12Zm-1.275,11.428a4.931,4.931,0,0,0,3.209-.943,3.394,3.394,0,0,0,1.152-2.79q0-3.675-4.724-3.676h-3.5v7.409Z" fill="#626160"/>
      <path d="M909.027,1342.12v4.019h-9.446v22.588h-5.143v-22.588h-9.446v-4.019Z" fill="#626160"/>
      <path d="M920.3,1342.12v18.607l16.493-18.607h2.724v26.606H934.45v-17.94l-16.531,18.131h-2.646v-26.8Z" fill="#626160"/>
      <path d="M958.007,1342.12a8.572,8.572,0,0,1,6.066,2.162,7.253,7.253,0,0,1,2.333,5.57,7.164,7.164,0,0,1-2.362,5.58,8.932,8.932,0,0,1-6.228,2.134h-4.951v11.16h-5.143V1342.12Zm-1.275,11.428a4.931,4.931,0,0,0,3.209-.943,3.394,3.394,0,0,0,1.152-2.79q0-3.675-4.724-3.676h-3.5v7.409Z" fill="#626160"/>
      <path d="M612.6,1388.926v26.606h-5.2V1393.1h-14v22.436h-5.142v-26.606Z" fill="#626160"/>
      <path d="M634.42,1388.583a15.977,15.977,0,0,1,7.437,1.705,13.438,13.438,0,0,1,.058,23.825,16.822,16.822,0,0,1-15.046-.028,13.17,13.17,0,0,1-7.151-11.847,13.381,13.381,0,0,1,1.886-6.875,13.093,13.093,0,0,1,5.2-5A15.838,15.838,0,0,1,634.42,1388.583Zm-9.39,13.655a9.475,9.475,0,0,0,1.2,4.762,8.342,8.342,0,0,0,3.342,3.275,9.995,9.995,0,0,0,4.848,1.162,9.247,9.247,0,0,0,6.732-2.571,8.851,8.851,0,0,0,2.638-6.628,9.594,9.594,0,0,0-1.19-4.771,8.235,8.235,0,0,0-3.353-3.285,10.727,10.727,0,0,0-9.731.01,8.135,8.135,0,0,0-3.323,3.275A9.707,9.707,0,0,0,625.03,1402.238Z" fill="#626160"/>
      <path d="M670.2,1388.583a19.191,19.191,0,0,1,4.438.515,22.422,22.422,0,0,1,4.685,1.752v4.838a22.078,22.078,0,0,0-4.542-2.038,15,15,0,0,0-4.352-.629,11.06,11.06,0,0,0-5.123,1.172,8.586,8.586,0,0,0-3.553,3.3,9.619,9.619,0,0,0-.009,9.523,8.437,8.437,0,0,0,3.542,3.266,11.258,11.258,0,0,0,5.143,1.152,13.8,13.8,0,0,0,4.18-.629,30.335,30.335,0,0,0,5.019-2.266v4.837a23.167,23.167,0,0,1-4.761,1.924,20.033,20.033,0,0,1-5.066.571,16.437,16.437,0,0,1-7.522-1.676,12.572,12.572,0,0,1-5.209-4.828,13.148,13.148,0,0,1-1.9-6.9,13.586,13.586,0,0,1,1.952-7.218,13.093,13.093,0,0,1,5.371-4.933A16.8,16.8,0,0,1,670.2,1388.583Z" fill="#626160"/>
      <path d="M689.512,1388.926l9.008,20.836,7.219-20.836h5.256l-9.827,25.939a14,14,0,0,1-3.323,5.485,6.878,6.878,0,0,1-4.828,1.771,7.971,7.971,0,0,1-3.9-.857v-4.532a6.458,6.458,0,0,0,3.676,1.219,3.514,3.514,0,0,0,2.134-.686,3.186,3.186,0,0,0,1.219-1.924l-11.979-26.416Z" fill="#626160"/>
      <path d="M738.59,1388.926v4.019h-9.446v22.588H724v-22.588h-9.446v-4.019Z" fill="#626160"/>
      <path d="M757.308,1388.583a15.981,15.981,0,0,1,7.438,1.705,13.438,13.438,0,0,1,.057,23.825,16.82,16.82,0,0,1-15.045-.028,13.169,13.169,0,0,1-7.152-11.847,13.381,13.381,0,0,1,1.886-6.875,13.093,13.093,0,0,1,5.2-5A15.844,15.844,0,0,1,757.308,1388.583Zm-9.389,13.655a9.474,9.474,0,0,0,1.2,4.762,8.338,8.338,0,0,0,3.343,3.275,9.994,9.994,0,0,0,4.847,1.162,9.247,9.247,0,0,0,6.732-2.571,8.847,8.847,0,0,0,2.638-6.628,9.584,9.584,0,0,0-1.19-4.771,8.232,8.232,0,0,0-3.352-3.285,10.729,10.729,0,0,0-9.732.01,8.141,8.141,0,0,0-3.323,3.275A9.706,9.706,0,0,0,747.92,1402.238Z" fill="#626160"/>
      <path d="M782.9,1388.926v6.876a9.516,9.516,0,0,0,.542,3.732,3.473,3.473,0,0,0,1.762,1.743,8.174,8.174,0,0,0,3.353.562,13.558,13.558,0,0,0,5.123-.9v-12.018h5.18v26.606h-5.18v-10.57a14.377,14.377,0,0,1-6.019,1.086q-5.275,0-7.628-2.457t-2.352-8.037v-6.628Z" fill="#626160"/>
      <path d="M812.192,1388.926v11.2H826v-11.2h5.142v26.606H826V1404.3H812.192v11.236H807.05v-26.606Z" fill="#626160"/>
      <path d="M852.984,1388.583a15.981,15.981,0,0,1,7.438,1.705,13.438,13.438,0,0,1,.057,23.825,16.82,16.82,0,0,1-15.045-.028,13.169,13.169,0,0,1-7.152-11.847,13.381,13.381,0,0,1,1.886-6.875,13.093,13.093,0,0,1,5.2-5A15.844,15.844,0,0,1,852.984,1388.583Zm-9.389,13.655a9.474,9.474,0,0,0,1.2,4.762,8.338,8.338,0,0,0,3.343,3.275,9.994,9.994,0,0,0,4.847,1.162,9.247,9.247,0,0,0,6.732-2.571,8.847,8.847,0,0,0,2.638-6.628,9.584,9.584,0,0,0-1.19-4.771,8.232,8.232,0,0,0-3.352-3.285,10.729,10.729,0,0,0-9.732.01,8.141,8.141,0,0,0-3.323,3.275A9.706,9.706,0,0,0,843.6,1402.238Z" fill="#626160"/>
    </g>
    <g>
      <path d="M1272.126,697.5v12.686h-34.041v85.771h-14.166V710.184h-34.04V697.5Z" stroke="#000" stroke-miterlimit="10" stroke-width="5"/>
      <path d="M1302.727,746.762a50.414,50.414,0,0,1,3.771-19.381,49.062,49.062,0,0,1,10.677-16.1,50.54,50.54,0,0,1,16.668-10.995,56.2,56.2,0,0,1,21.742-4.052,57.051,57.051,0,0,1,21.989,4.052,50.337,50.337,0,0,1,16.667,10.959,48.064,48.064,0,0,1,10.572,16.069,52.427,52.427,0,0,1,.07,38.516,48.289,48.289,0,0,1-10.466,16.1,50.433,50.433,0,0,1-16.738,11.135,57.294,57.294,0,0,1-22.377,4.158,58.707,58.707,0,0,1-15.082-1.868,51.82,51.82,0,0,1-12.862-5.25,48.665,48.665,0,0,1-10.395-8.07,49.387,49.387,0,0,1-12.581-22.235A51.374,51.374,0,0,1,1302.727,746.762Zm14.588,0a38.055,38.055,0,0,0,2.89,14.906,35.859,35.859,0,0,0,20.121,19.769,42.8,42.8,0,0,0,30.553,0,35.78,35.78,0,0,0,20.156-19.769,40.253,40.253,0,0,0,0-29.953,35.934,35.934,0,0,0-8-11.875,36.6,36.6,0,0,0-12.157-7.823,42.8,42.8,0,0,0-30.553,0,36.66,36.66,0,0,0-12.122,7.823,35.9,35.9,0,0,0-8,11.875A38.423,38.423,0,0,0,1317.315,746.762Z" stroke="#000" stroke-miterlimit="10" stroke-width="5"/>
    </g>
    <g>
      <path d="M893.818,942.39q-3.595,1.9-7.471,3.489a64.533,64.533,0,0,1-8.211,2.713,74.309,74.309,0,0,1-9.3,1.762,84.477,84.477,0,0,1-10.677.634,60.206,60.206,0,0,1-16.773-2.185,51.734,51.734,0,0,1-13.427-5.92,47.067,47.067,0,0,1-10.219-8.668,51.56,51.56,0,0,1-7.153-10.4,49.9,49.9,0,0,1-4.193-11.1,45.538,45.538,0,0,1-1.374-10.783,54.593,54.593,0,0,1,1.832-14.271,50.441,50.441,0,0,1,5.215-12.545,48.7,48.7,0,0,1,8.211-10.4,50.289,50.289,0,0,1,10.818-7.929,54.668,54.668,0,0,1,13.038-5.039A61.152,61.152,0,0,1,859,849.994a64.183,64.183,0,0,1,15.681,1.938q4.124,1.022,8.6,2.537t9.479,3.63v15.152a98.05,98.05,0,0,0-8.845-4.616,70.221,70.221,0,0,0-8.387-3.207,54.811,54.811,0,0,0-8.245-1.868,58.59,58.59,0,0,0-8.423-.6,42.009,42.009,0,0,0-15.646,2.854,38.292,38.292,0,0,0-12.439,7.858,35.643,35.643,0,0,0-8.21,11.911,37.886,37.886,0,0,0-2.961,15.082,38.609,38.609,0,0,0,2.89,15.118,34.142,34.142,0,0,0,8.141,11.8,37.167,37.167,0,0,0,12.58,7.682,45.841,45.841,0,0,0,16.21,2.749,55.806,55.806,0,0,0,17.2-2.819,72.3,72.3,0,0,0,17.2-8.316Z" stroke="#000" stroke-miterlimit="10" stroke-width="5"/>
      <path d="M978.507,850.7l44.048,99.021h-14.447L995,920.683H953.134l-12.4,29.037H926.283L968.569,850.7Zm-5.145,21.637L958.632,908h30.588Z" stroke="#000" stroke-miterlimit="10" stroke-width="5"/>
      <path d="M1150.868,851.263v98.457H1136.7V873.11h-.282l-30.3,38.058h-2.326l-30.3-38.058h-.282v76.609h-14.1V851.263h13.25l32.631,40.454,32.771-40.454Z" stroke="#000" stroke-miterlimit="10" stroke-width="5"/>
      <path d="M1193.693,900.526a50.414,50.414,0,0,1,3.771-19.381,49.062,49.062,0,0,1,10.677-16.1,50.54,50.54,0,0,1,16.668-10.995,56.2,56.2,0,0,1,21.742-4.052,57.051,57.051,0,0,1,21.989,4.052,50.337,50.337,0,0,1,16.667,10.959,48.064,48.064,0,0,1,10.572,16.069,52.427,52.427,0,0,1,.07,38.516,48.289,48.289,0,0,1-10.466,16.1,50.433,50.433,0,0,1-16.738,11.135,57.294,57.294,0,0,1-22.377,4.158,58.707,58.707,0,0,1-15.082-1.868,51.82,51.82,0,0,1-12.862-5.25,48.665,48.665,0,0,1-10.395-8.07,49.387,49.387,0,0,1-12.581-22.235A51.374,51.374,0,0,1,1193.693,900.526Zm14.588,0a38.055,38.055,0,0,0,2.89,14.906,35.859,35.859,0,0,0,20.121,19.769,42.8,42.8,0,0,0,30.553,0A35.78,35.78,0,0,0,1282,915.432a40.253,40.253,0,0,0,0-29.953,35.934,35.934,0,0,0-8-11.875,36.6,36.6,0,0,0-12.157-7.823,42.8,42.8,0,0,0-30.553,0,36.66,36.66,0,0,0-12.122,7.823,35.9,35.9,0,0,0-8,11.875A38.423,38.423,0,0,0,1208.281,900.526Z" stroke="#000" stroke-miterlimit="10" stroke-width="5"/>
      <path d="M1398.686,851.263v12.686h-41.723V893.69h40.313v12.756h-40.312v30.587h43.062v12.686h-57.157V851.263Z" stroke="#000" stroke-miterlimit="10" stroke-width="5"/>
    </g>
    <g>
      <path d="M900.251,1010.633v98.456H886.085V1032.48H885.8L855.5,1070.538h-2.326l-30.3-38.058h-.282v76.608H808.49v-98.456h13.249l32.631,40.453,32.772-40.453Z" stroke="#000" stroke-miterlimit="10" stroke-width="5"/>
      <path d="M1007.305,1010.633v12.686H965.582v29.741H1005.9v12.757H965.582V1096.4h43.062v12.686H951.487v-98.456Z" stroke="#000" stroke-miterlimit="10" stroke-width="5"/>
      <path d="M1138.532,1101.76q-3.595,1.9-7.471,3.488a64.456,64.456,0,0,1-8.211,2.714,74.309,74.309,0,0,1-9.3,1.762,84.481,84.481,0,0,1-10.677.634,60.188,60.188,0,0,1-16.773-2.185,51.733,51.733,0,0,1-13.427-5.92,47.083,47.083,0,0,1-10.219-8.669,51.56,51.56,0,0,1-7.153-10.4,49.909,49.909,0,0,1-4.193-11.1,45.541,45.541,0,0,1-1.374-10.783,54.59,54.59,0,0,1,1.832-14.271,50.434,50.434,0,0,1,5.215-12.545,48.683,48.683,0,0,1,8.211-10.4,50.256,50.256,0,0,1,10.818-7.929,54.647,54.647,0,0,1,13.038-5.039,61.152,61.152,0,0,1,14.871-1.762,64.213,64.213,0,0,1,15.681,1.938q4.124,1.022,8.6,2.537t9.479,3.63v15.152a98.05,98.05,0,0,0-8.845-4.616,70.3,70.3,0,0,0-8.387-3.206,54.813,54.813,0,0,0-8.245-1.868,58.661,58.661,0,0,0-8.423-.6,42.009,42.009,0,0,0-15.646,2.854,38.291,38.291,0,0,0-12.439,7.857,35.64,35.64,0,0,0-8.21,11.911,37.884,37.884,0,0,0-2.961,15.082,38.608,38.608,0,0,0,2.89,15.117,34.142,34.142,0,0,0,8.141,11.8,37.168,37.168,0,0,0,12.58,7.683,45.851,45.851,0,0,0,16.21,2.748,55.82,55.82,0,0,0,17.2-2.818,72.316,72.316,0,0,0,17.2-8.316Z" stroke="#000" stroke-miterlimit="10" stroke-width="5"/>
      <path d="M1259.752,1010.633v12.686h-34.041v85.771h-14.166v-85.771H1177.5v-12.686Z" stroke="#000" stroke-miterlimit="10" stroke-width="5"/>
      <path d="M1298.724,1059.9a50.414,50.414,0,0,1,3.771-19.382,49.055,49.055,0,0,1,10.677-16.1,50.541,50.541,0,0,1,16.668-11,56.2,56.2,0,0,1,21.742-4.052,57.051,57.051,0,0,1,21.989,4.052,50.345,50.345,0,0,1,16.667,10.96,48.057,48.057,0,0,1,10.572,16.068,52.427,52.427,0,0,1,.07,38.516,48.291,48.291,0,0,1-10.466,16.1,50.432,50.432,0,0,1-16.738,11.135,57.285,57.285,0,0,1-22.377,4.158,58.729,58.729,0,0,1-15.082-1.867,51.8,51.8,0,0,1-12.862-5.251,48.663,48.663,0,0,1-10.395-8.069,49.393,49.393,0,0,1-12.581-22.235A51.374,51.374,0,0,1,1298.724,1059.9Zm14.588,0a38.054,38.054,0,0,0,2.89,14.905,35.858,35.858,0,0,0,20.121,19.77,42.81,42.81,0,0,0,30.553,0,35.779,35.779,0,0,0,20.156-19.77,40.252,40.252,0,0,0,0-29.952,35.941,35.941,0,0,0-8-11.876,36.6,36.6,0,0,0-12.157-7.823,42.81,42.81,0,0,0-30.553,0,36.668,36.668,0,0,0-12.122,7.823,35.911,35.911,0,0,0-8,11.876A38.423,38.423,0,0,0,1313.312,1059.9Z" stroke="#000" stroke-miterlimit="10" stroke-width="5"/>
    </g>
  </g>
</svg>
