<svg xmlns="http://www.w3.org/2000/svg" width="48" height="48" viewBox="0 0 48 48">
  <title>полотенце</title>
  <path d="M46.955,8.084H42.8V4.827A4.833,4.833,0,0,0,37.972,0H9.859A4.833,4.833,0,0,0,5.032,4.827V8.084H1.045a1.045,1.045,0,1,0,0,2.09H5.032V39.9a1.045,1.045,0,0,0,1.045,1.045h4.848v6.011A1.045,1.045,0,0,0,11.97,48H41.755A1.045,1.045,0,0,0,42.8,46.955V10.175h4.155a1.045,1.045,0,1,0,0-2.09ZM40.709,4.827V8.084H35.235V4.827a2.737,2.737,0,0,1,5.474,0ZM7.122,38.853V29.145c.767.008,1.181.53,1.841,1.455.7.984,1.666,2.333,3.558,2.333s2.854-1.349,3.557-2.333c.664-.931,1.078-1.458,1.855-1.458s1.192.526,1.858,1.458c.7.984,1.667,2.333,3.559,2.333s2.856-1.348,3.56-2.333c.665-.931,1.08-1.458,1.86-1.458s1.195.526,1.86,1.458a5.112,5.112,0,0,0,2.515,2.167v6.086Zm26.023-8.468a6.991,6.991,0,0,1-.815-1c-.7-.985-1.668-2.333-3.56-2.333s-2.856,1.348-3.56,2.333c-.665.931-1.08,1.458-1.859,1.458s-1.193-.526-1.858-1.458c-.7-.985-1.667-2.333-3.558-2.333s-2.854,1.349-3.557,2.333c-.664.931-1.078,1.458-1.855,1.458s-1.192-.526-1.857-1.458C9.963,28.4,9,27.061,7.122,27.053V21.6c.767.008,1.181.53,1.841,1.455.7.985,1.667,2.334,3.558,2.334s2.854-1.349,3.557-2.334c.664-.931,1.078-1.458,1.855-1.458s1.192.526,1.858,1.458c.7.985,1.667,2.334,3.559,2.334s2.856-1.349,3.56-2.333c.665-.932,1.08-1.459,1.86-1.459s1.194.526,1.86,1.459a5.114,5.114,0,0,0,2.515,2.167ZM9.859,2.09H34a4.794,4.794,0,0,0-.858,2.737V22.842a7.008,7.008,0,0,1-.815-1c-.7-.984-1.668-2.333-3.56-2.333s-2.857,1.349-3.56,2.334c-.665.931-1.08,1.458-1.859,1.458s-1.193-.526-1.858-1.459c-.7-.984-1.667-2.333-3.558-2.333s-2.854,1.349-3.557,2.334c-.664.931-1.078,1.458-1.855,1.458s-1.192-.526-1.857-1.458c-.7-.982-1.661-2.325-3.542-2.333V4.827A2.74,2.74,0,0,1,9.859,2.09ZM13.016,45.91V40.944H34.19A1.045,1.045,0,0,0,35.235,39.9V10.175h5.474V45.91Z" fill="#121212"/>
</svg>
