<svg xmlns="http://www.w3.org/2000/svg" width="48" height="48" viewBox="0 0 48 48">
  <title>wi-fi</title>
  <g>
    <path d="M24,24.959a14.6,14.6,0,0,0-10.39,4.3,1.046,1.046,0,1,0,1.479,1.479,12.6,12.6,0,0,1,17.822,0,1.046,1.046,0,1,0,1.479-1.479A14.6,14.6,0,0,0,24,24.959Z" fill="#121212"/>
    <path d="M6.79,23.544a1.046,1.046,0,1,0,1.479,1.479,22.272,22.272,0,0,1,31.462,0,1.046,1.046,0,1,0,1.479-1.479A24.368,24.368,0,0,0,6.79,23.544Z" fill="#121212"/>
    <path d="M47.694,18.162a33.507,33.507,0,0,0-47.387,0,1.046,1.046,0,1,0,1.479,1.479,31.415,31.415,0,0,1,44.428,0,1.046,1.046,0,1,0,1.479-1.479Z" fill="#121212"/>
    <path d="M19.164,34.816,24,39.653l4.837-4.837A6.84,6.84,0,0,0,19.164,34.816Z" fill="#121212"/>
  </g>
</svg>
