<svg xmlns="http://www.w3.org/2000/svg" width="48" height="48" viewBox="0 0 48 48">
  <title>рабочее место</title>
  <g>
    <path d="M44.527,1.777H3.473A3.473,3.473,0,0,0,0,5.25V36.92a3.473,3.473,0,0,0,3.473,3.473h1.99A15.72,15.72,0,0,1,7.907,34.86H3.595a1.381,1.381,0,0,1-1.381-1.381V5.249A1.381,1.381,0,0,1,3.595,3.868H44.405a1.381,1.381,0,0,1,1.381,1.381V33.479a1.381,1.381,0,0,1-1.381,1.381H40.093a15.722,15.722,0,0,1,2.444,5.533h1.99A3.473,3.473,0,0,0,48,36.92V5.25A3.473,3.473,0,0,0,44.527,1.777Z" fill="#121212"/>
    <g>
      <path d="M24,29.629A14.53,14.53,0,0,0,9.487,44.143,3.862,3.862,0,0,0,13.344,48H34.656a3.862,3.862,0,0,0,3.857-3.857A14.53,14.53,0,0,0,24,29.629ZM34.656,45.91H13.344a1.769,1.769,0,0,1-1.767-1.767,12.423,12.423,0,1,1,24.846,0A1.769,1.769,0,0,1,34.656,45.91Z" fill="#121212"/>
      <path d="M24,26.532a6.976,6.976,0,1,0-6.976-6.976A6.984,6.984,0,0,0,24,26.532Zm0-11.861a4.885,4.885,0,1,1-4.885,4.885A4.891,4.891,0,0,1,24,14.671Z" fill="#121212"/>
    </g>
  </g>
</svg>
