<svg width="1070" height="1076" viewBox="0 0 1070 1076" fill="none" xmlns="http://www.w3.org/2000/svg">
<path d="M1060.3 63.0698H56.917V1066.45H1060.3V63.0698Z" stroke="#545454" stroke-width="18" stroke-miterlimit="10"/>
<path d="M1013.08 9.54492H9.69901V1012.93H1013.08V9.54492Z" stroke="#545454" stroke-width="18" stroke-miterlimit="10"/>
<path d="M136.74 880.12L148.491 906.726H143.063L140.301 900.25H128.474L125.903 906.726H120.513L131.484 880.12H136.74ZM130.04 896.347H138.63L134.13 885.816L130.04 896.347Z" fill="#626160"/>
<path d="M164.239 880.12C166.465 880.025 168.64 880.8 170.304 882.282C171.07 882.988 171.675 883.851 172.078 884.813C172.481 885.774 172.671 886.811 172.637 887.852C172.675 888.898 172.483 889.94 172.076 890.904C171.668 891.868 171.053 892.731 170.276 893.432C168.547 894.911 166.32 895.674 164.048 895.566H159.1V906.726H153.958V880.12H164.239ZM162.963 891.548C164.11 891.617 165.245 891.284 166.172 890.605C166.566 890.261 166.876 889.829 167.076 889.345C167.275 888.861 167.36 888.338 167.324 887.815C167.324 885.365 165.75 884.14 162.601 884.139H159.101V891.548H162.963Z" fill="#626160"/>
<path d="M196.271 880.12V884.139H184.216V891.129H195.757V895.148H184.216V902.709H196.538V906.728H179.073V880.12H196.271Z" fill="#626160"/>
<path d="M208.819 880.12V891.32H222.627V880.12H227.77V906.726H222.627V895.49H208.819V906.726H203.677V880.12H208.819Z" fill="#626160"/>
<path d="M250.126 880.12L259.211 902.441H262.258V911.602H257.193V906.726H238.7V911.602H233.634V902.441H236.662L245.176 880.12H250.126ZM241.86 902.441H253.992L247.669 886.062L241.86 902.441Z" fill="#626160"/>
<path d="M281.605 880.12L293.356 906.726H287.927L285.166 900.25H273.34L270.769 906.726H265.379L276.349 880.12H281.605ZM274.905 896.347H283.494L279 885.815L274.905 896.347Z" fill="#626160"/>
<path d="M317.062 880.12V890.766H317.329C318.228 890.794 319.122 890.612 319.938 890.233C320.607 889.836 321.179 889.297 321.614 888.652C322.237 887.74 322.761 886.763 323.176 885.739C323.684 884.469 324.366 883.277 325.204 882.196C325.809 881.49 326.582 880.946 327.452 880.615C328.933 880.158 330.493 880.015 332.032 880.196V884.291C331.257 884.256 330.481 884.349 329.737 884.567C329.231 884.764 328.79 885.097 328.461 885.529C327.916 886.325 327.465 887.181 327.118 888.081C326.118 890.481 324.804 891.992 323.176 892.614C324.479 893.179 325.635 894.034 326.557 895.114C327.81 896.624 328.887 898.273 329.766 900.027L333.366 906.727H327.672L324.397 900.48C323.773 899.261 323.03 898.106 322.178 897.033C321.589 896.294 320.857 895.682 320.026 895.233C319.095 894.821 318.081 894.629 317.064 894.671V906.727H312V880.12H317.062Z" fill="#626160"/>
<path d="M349.056 880.12C351.206 880.026 353.32 880.701 355.017 882.025C355.743 882.587 356.328 883.309 356.727 884.135C357.126 884.961 357.328 885.869 357.317 886.786C357.338 887.933 357.002 889.058 356.355 890.005C355.647 890.985 354.681 891.75 353.565 892.214V892.443C355.247 892.762 356.773 893.638 357.898 894.928C358.924 896.144 359.476 897.69 359.45 899.281C359.471 900.681 359.077 902.056 358.317 903.232C357.555 904.399 356.46 905.312 355.174 905.851C353.674 906.466 352.062 906.764 350.441 906.727H339.305V880.12H349.056ZM347.685 891.167C348.839 891.231 349.978 890.887 350.903 890.195C351.295 889.867 351.606 889.452 351.811 888.984C352.016 888.515 352.11 888.006 352.085 887.495C352.104 887.031 352.016 886.569 351.828 886.145C351.64 885.72 351.356 885.345 350.999 885.048C350.186 884.415 349.173 884.094 348.143 884.143H344.443V891.171L347.685 891.167ZM348.885 902.708C350.269 902.803 351.648 902.46 352.827 901.728C353.27 901.394 353.624 900.956 353.857 900.453C354.089 899.949 354.193 899.396 354.16 898.842C354.178 898.321 354.066 897.804 353.835 897.338C353.604 896.871 353.261 896.468 352.837 896.166C351.79 895.465 350.544 895.121 349.285 895.186H344.447V902.708H348.885Z" fill="#626160"/>
<path d="M379.621 880.12L391.372 906.726H385.944L383.182 900.25H371.355L368.784 906.726H363.394L374.365 880.12H379.621ZM372.921 896.347H381.511L377.011 885.816L372.921 896.347Z" fill="#626160"/>
<path d="M407.12 880.12C409.346 880.025 411.522 880.8 413.186 882.282C413.952 882.988 414.557 883.852 414.96 884.813C415.362 885.774 415.553 886.811 415.519 887.852C415.557 888.898 415.365 889.94 414.957 890.904C414.549 891.868 413.934 892.731 413.157 893.432C411.428 894.911 409.201 895.674 406.929 895.566H401.978V906.726H396.835V880.12H407.12ZM405.845 891.548C406.992 891.617 408.127 891.284 409.054 890.605C409.448 890.26 409.757 889.829 409.957 889.345C410.157 888.861 410.242 888.337 410.206 887.815C410.206 885.365 408.631 884.14 405.482 884.139H401.982V891.548H405.845Z" fill="#626160"/>
<path d="M444.027 880.12V884.139H434.581V906.727H429.438V884.139H419.992V880.12H444.027Z" fill="#626160"/>
<path d="M455.3 880.12V898.727L471.793 880.12H474.517V906.726H469.45V888.786L452.919 906.917H450.273V880.117L455.3 880.12Z" fill="#626160"/>
<path d="M493.007 880.12C495.233 880.025 497.409 880.8 499.073 882.282C499.839 882.988 500.444 883.852 500.847 884.813C501.249 885.774 501.44 886.811 501.406 887.852C501.444 888.898 501.252 889.94 500.844 890.904C500.436 891.868 499.822 892.731 499.044 893.432C497.315 894.911 495.088 895.674 492.816 895.566H487.865V906.726H482.722V880.12H493.007ZM491.732 891.548C492.879 891.617 494.014 891.284 494.941 890.605C495.335 890.26 495.644 889.829 495.844 889.345C496.044 888.861 496.129 888.337 496.093 887.815C496.093 885.365 494.518 884.14 491.369 884.139H487.869V891.548H491.732Z" fill="#626160"/>
<path d="M147.6 926.926V953.532H142.4V931.1H128.4V953.536H123.258V926.93L147.6 926.926Z" fill="#626160"/>
<path d="M169.42 926.583C172 926.543 174.552 927.128 176.857 928.288C179.037 929.419 180.865 931.126 182.143 933.223C183.421 935.32 184.099 937.727 184.105 940.183C184.111 942.639 183.444 945.049 182.177 947.153C180.909 949.256 179.089 950.972 176.915 952.113C174.577 953.277 172 953.88 169.389 953.875C166.777 953.87 164.203 953.257 161.869 952.085C159.695 950.968 157.875 949.269 156.612 947.177C155.349 945.084 154.693 942.682 154.718 940.238C154.713 937.818 155.365 935.442 156.604 933.363C157.835 931.243 159.637 929.51 161.804 928.363C164.154 927.143 166.772 926.531 169.42 926.583V926.583ZM160.03 940.238C160.005 941.903 160.418 943.546 161.23 945C162.009 946.388 163.168 947.525 164.572 948.275C166.064 949.066 167.732 949.466 169.42 949.437C170.657 949.481 171.89 949.276 173.047 948.834C174.203 948.393 175.259 947.723 176.152 946.866C177.027 946.005 177.714 944.971 178.168 943.83C178.622 942.689 178.834 941.466 178.79 940.238C178.815 938.572 178.404 936.927 177.6 935.467C176.825 934.07 175.66 932.929 174.247 932.182C172.739 931.417 171.071 931.019 169.38 931.02C167.689 931.022 166.022 931.424 164.516 932.192C163.112 932.936 161.957 934.075 161.193 935.467C160.403 936.932 160.002 938.575 160.03 940.238V940.238Z" fill="#626160"/>
<path d="M205.2 926.583C206.694 926.582 208.184 926.754 209.638 927.098C211.26 927.506 212.832 928.093 214.323 928.85V933.688C212.891 932.84 211.367 932.156 209.781 931.65C208.369 931.228 206.903 931.016 205.429 931.021C203.652 930.995 201.895 931.397 200.306 932.193C198.829 932.929 197.596 934.075 196.753 935.493C195.925 936.943 195.489 938.584 195.487 940.254C195.486 941.923 195.919 943.565 196.744 945.016C197.582 946.426 198.813 947.561 200.286 948.282C201.885 949.068 203.648 949.463 205.429 949.434C206.846 949.44 208.256 949.228 209.609 948.805C211.347 948.204 213.027 947.445 214.628 946.539V951.376C213.117 952.192 211.52 952.837 209.867 953.3C208.21 953.706 206.507 953.897 204.801 953.871C202.196 953.917 199.618 953.342 197.279 952.195C195.115 951.12 193.306 949.444 192.07 947.367C190.811 945.287 190.153 942.899 190.17 940.467C190.133 937.926 190.809 935.425 192.122 933.249C193.409 931.129 195.272 929.419 197.493 928.316C199.888 927.134 202.53 926.54 205.2 926.583Z" fill="#626160"/>
<path d="M224.512 926.926L233.52 947.762L240.739 926.926H245.995L236.168 952.865C235.5 954.926 234.362 956.803 232.845 958.35C231.525 959.542 229.795 960.177 228.017 960.121C226.665 960.171 225.323 959.876 224.117 959.264V954.732C225.189 955.505 226.472 955.93 227.793 955.951C228.56 955.961 229.31 955.72 229.927 955.265C230.557 954.796 230.991 954.11 231.146 953.341L219.167 926.925L224.512 926.926Z" fill="#626160"/>
<path d="M273.59 926.926V930.945H264.144V953.533H259V930.945H249.554V926.926H273.59Z" fill="#626160"/>
<path d="M292.308 926.583C294.889 926.543 297.441 927.128 299.746 928.288C301.926 929.419 303.754 931.126 305.031 933.223C306.309 935.321 306.988 937.728 306.994 940.183C307 942.639 306.333 945.05 305.065 947.153C303.797 949.256 301.977 950.972 299.803 952.113C297.465 953.277 294.889 953.88 292.277 953.875C289.666 953.87 287.091 953.257 284.758 952.085C282.584 950.969 280.764 949.269 279.5 947.177C278.237 945.085 277.581 942.682 277.606 940.238C277.601 937.818 278.253 935.442 279.492 933.363C280.723 931.242 282.525 929.51 284.692 928.363C287.042 927.143 289.66 926.531 292.308 926.583V926.583ZM282.919 940.238C282.894 941.903 283.307 943.546 284.119 945C284.898 946.389 286.058 947.525 287.462 948.275C288.954 949.066 290.621 949.465 292.309 949.437C293.546 949.481 294.779 949.276 295.936 948.834C297.092 948.393 298.148 947.723 299.041 946.866C299.917 946.005 300.604 944.971 301.058 943.83C301.512 942.689 301.723 941.466 301.679 940.238C301.704 938.571 301.294 936.927 300.489 935.467C299.714 934.07 298.549 932.929 297.137 932.182C295.629 931.417 293.961 931.019 292.27 931.02C290.578 931.022 288.912 931.424 287.405 932.192C286.002 932.936 284.846 934.075 284.082 935.467C283.292 936.932 282.892 938.575 282.92 940.238H282.919Z" fill="#626160"/>
<path d="M317.9 926.926V933.802C317.83 935.07 318.014 936.339 318.442 937.534C318.795 938.312 319.422 938.932 320.204 939.277C321.27 939.697 322.412 939.889 323.557 939.839C325.307 939.872 327.046 939.567 328.68 938.939V926.921H333.86V953.527H328.68V942.957C326.775 943.746 324.722 944.117 322.661 944.043C319.144 944.043 316.602 943.224 315.033 941.586C313.464 939.948 312.68 937.269 312.681 933.549V926.921L317.9 926.926Z" fill="#626160"/>
<path d="M347.192 926.926V938.126H361V926.926H366.142V953.532H361V942.3H347.192V953.536H342.05V926.93L347.192 926.926Z" fill="#626160"/>
<path d="M387.984 926.583C390.565 926.543 393.117 927.128 395.422 928.288C397.602 929.419 399.43 931.126 400.707 933.223C401.985 935.321 402.664 937.728 402.67 940.183C402.676 942.639 402.009 945.05 400.741 947.153C399.473 949.256 397.653 950.972 395.479 952.113C393.141 953.277 390.565 953.88 387.953 953.875C385.342 953.87 382.767 953.257 380.434 952.085C378.26 950.969 376.44 949.269 375.176 947.177C373.913 945.085 373.257 942.682 373.282 940.238C373.277 937.818 373.929 935.442 375.168 933.363C376.399 931.242 378.201 929.51 380.368 928.363C382.718 927.143 385.336 926.531 387.984 926.583V926.583ZM378.595 940.238C378.569 941.903 378.983 943.546 379.795 945C380.574 946.389 381.734 947.525 383.138 948.275C384.63 949.066 386.297 949.465 387.985 949.437C389.222 949.481 390.455 949.276 391.612 948.834C392.768 948.393 393.824 947.723 394.717 946.866C395.593 946.005 396.279 944.971 396.734 943.83C397.188 942.689 397.399 941.466 397.355 940.238C397.38 938.571 396.97 936.927 396.165 935.467C395.39 934.07 394.225 932.929 392.813 932.182C391.305 931.417 389.637 931.019 387.946 931.02C386.254 931.022 384.588 931.424 383.081 932.192C381.678 932.936 380.522 934.075 379.758 935.467C378.97 936.932 378.571 938.575 378.6 940.238H378.595Z" fill="#626160"/>
<path d="M807.126 235.5V248.186H773.085V333.957H758.919V248.184H724.879V235.5H807.126Z" fill="black" stroke="black" stroke-width="5" stroke-miterlimit="10"/>
<path d="M837.727 284.762C837.694 278.116 838.976 271.53 841.498 265.381C843.955 259.36 847.584 253.887 852.175 249.281C856.945 244.544 862.611 240.806 868.843 238.286C875.75 235.509 883.141 234.131 890.585 234.234C898.11 234.121 905.583 235.498 912.574 238.286C918.805 240.791 924.472 244.517 929.241 249.245C933.812 253.834 937.408 259.3 939.813 265.314C944.722 277.679 944.747 291.447 939.883 303.83C937.507 309.843 933.948 315.318 929.417 319.93C924.641 324.727 918.949 328.514 912.679 331.065C905.573 333.933 897.964 335.347 890.302 335.223C885.215 335.256 880.145 334.628 875.22 333.355C870.716 332.19 866.39 330.424 862.358 328.105C858.544 325.898 855.047 323.183 851.963 320.035C845.892 313.855 841.553 306.187 839.382 297.8C838.274 293.543 837.718 289.161 837.727 284.762V284.762ZM852.315 284.762C852.267 289.874 853.25 294.944 855.205 299.668C857.048 304.152 859.782 308.216 863.24 311.614C866.698 315.012 870.81 317.673 875.326 319.437C885.164 323.196 896.042 323.196 905.879 319.437C910.404 317.681 914.524 315.023 917.989 311.625C921.454 308.226 924.192 304.158 926.035 299.668C929.888 290.055 929.888 279.328 926.035 269.715C924.192 265.26 921.471 261.222 918.035 257.84C914.543 254.45 910.41 251.79 905.878 250.017C896.041 246.258 885.162 246.258 875.325 250.017C870.806 251.796 866.686 254.455 863.203 257.84C859.766 261.221 857.045 265.26 855.203 269.715C853.24 274.486 852.258 279.603 852.315 284.762V284.762Z" fill="black" stroke="black" stroke-width="5" stroke-miterlimit="10"/>
<path d="M428.818 480.39C426.421 481.657 423.931 482.82 421.347 483.879C418.674 484.966 415.931 485.872 413.136 486.592C410.077 487.376 406.97 487.965 403.836 488.354C400.294 488.791 396.728 489.002 393.159 488.988C387.493 489.053 381.846 488.317 376.386 486.803C371.652 485.478 367.131 483.484 362.959 480.883C359.157 478.496 355.715 475.577 352.74 472.215C349.939 469.054 347.536 465.562 345.587 461.815C343.753 458.295 342.345 454.569 341.394 450.715C340.507 447.188 340.046 443.568 340.02 439.932C339.998 435.115 340.614 430.316 341.852 425.661C343.017 421.263 344.771 417.043 347.067 413.116C349.317 409.291 352.08 405.792 355.278 402.716C358.514 399.602 362.152 396.935 366.096 394.787C370.208 392.556 374.59 390.863 379.134 389.748C383.999 388.557 388.992 387.968 394 387.994C399.287 387.992 404.554 388.643 409.681 389.932C412.43 390.613 415.297 391.459 418.281 392.469C421.265 393.479 424.425 394.689 427.76 396.099V411.251C424.892 409.563 421.94 408.023 418.915 406.635C416.191 405.388 413.389 404.317 410.528 403.428C407.832 402.594 405.075 401.969 402.283 401.56C399.493 401.158 396.678 400.957 393.86 400.96C388.511 400.906 383.2 401.875 378.214 403.814C373.599 405.605 369.374 408.273 365.775 411.672C362.253 415.039 359.459 419.093 357.565 423.583C355.558 428.355 354.55 433.488 354.604 438.665C354.543 443.847 355.526 448.989 357.494 453.783C359.342 458.248 362.117 462.27 365.635 465.583C369.273 468.958 373.551 471.57 378.215 473.265C383.409 475.151 388.9 476.082 394.425 476.014C400.271 475.981 406.075 475.03 411.625 473.195C417.701 471.196 423.485 468.4 428.825 464.879L428.818 480.39Z" fill="black" stroke="black" stroke-width="5" stroke-miterlimit="10"/>
<path d="M513.507 388.7L557.555 487.721H543.108L530 458.683H488.134L475.734 487.72H461.283L503.569 388.7H513.507ZM508.362 410.337L493.632 446H524.22L508.362 410.337Z" fill="black" stroke="black" stroke-width="5" stroke-miterlimit="10"/>
<path d="M685.868 389.263V487.72H671.7V411.11H671.418L641.118 449.168H638.792L608.492 411.11H608.21V487.719H594.11V389.263H607.36L639.991 429.717L672.762 389.263H685.868Z" fill="black" stroke="black" stroke-width="5" stroke-miterlimit="10"/>
<path d="M728.693 438.526C728.66 431.88 729.942 425.294 732.464 419.145C734.921 413.124 738.55 407.651 743.141 403.045C747.91 398.308 753.577 394.57 759.809 392.05C766.716 389.273 774.107 387.895 781.551 387.998C789.076 387.885 796.549 389.262 803.54 392.05C809.771 394.555 815.438 398.281 820.207 403.009C824.778 407.598 828.374 413.064 830.779 419.078C835.688 431.443 835.713 445.212 830.849 457.594C828.473 463.607 824.914 469.082 820.383 473.694C815.608 478.491 809.915 482.278 803.645 484.829C796.539 487.698 788.93 489.112 781.268 488.987C776.181 489.021 771.111 488.393 766.186 487.119C761.682 485.954 757.356 484.189 753.324 481.869C749.51 479.662 746.013 476.947 742.929 473.799C736.858 467.619 732.519 459.951 730.348 451.564C729.24 447.307 728.684 442.925 728.693 438.526V438.526ZM743.281 438.526C743.233 443.638 744.216 448.708 746.171 453.432C748.014 457.916 750.748 461.98 754.206 465.378C757.664 468.776 761.776 471.437 766.292 473.201C776.129 476.96 787.007 476.96 796.845 473.201C801.37 471.445 805.49 468.787 808.955 465.389C812.42 461.99 815.157 457.922 817 453.432C820.853 443.82 820.853 433.092 817 423.479C815.157 419.024 812.436 414.986 809 411.604C805.508 408.214 801.375 405.555 796.843 403.781C787.006 400.022 776.128 400.022 766.29 403.781C761.771 405.56 757.651 408.219 754.168 411.604C750.731 414.985 748.01 419.024 746.168 423.479C744.205 428.25 743.223 433.368 743.281 438.526V438.526Z" fill="black" stroke="black" stroke-width="5" stroke-miterlimit="10"/>
<path d="M933.686 389.263V401.949H891.963V431.69H932.276V444.446H891.964V475.033H935.026V487.719H877.869V389.263H933.686Z" fill="black" stroke="black" stroke-width="5" stroke-miterlimit="10"/>
<path d="M435.251 548.633V647.089H421.085V570.48H420.8L390.5 608.538H388.174L357.874 570.48H357.592V647.088H343.49V548.632H356.739L389.37 589.085L422.142 548.632L435.251 548.633Z" fill="black" stroke="black" stroke-width="5" stroke-miterlimit="10"/>
<path d="M542.305 548.633V561.319H500.582V591.06H540.9V603.817H500.582V634.4H543.644V647.086H486.487V548.63L542.305 548.633Z" fill="black" stroke="black" stroke-width="5" stroke-miterlimit="10"/>
<path d="M673.532 639.76C671.135 641.026 668.645 642.189 666.061 643.248C663.388 644.335 660.645 645.242 657.85 645.962C654.791 646.746 651.684 647.335 648.55 647.724C645.008 648.16 641.442 648.372 637.873 648.358C632.207 648.423 626.56 647.687 621.1 646.173C616.366 644.847 611.845 642.854 607.673 640.253C603.871 637.865 600.429 634.946 597.454 631.584C594.653 628.423 592.25 624.93 590.301 621.184C588.467 617.664 587.059 613.937 586.108 610.084C585.221 606.557 584.76 602.937 584.734 599.301C584.712 594.484 585.328 589.685 586.566 585.03C587.731 580.632 589.485 576.412 591.781 572.485C594.031 568.66 596.794 565.161 599.992 562.085C603.227 558.97 606.866 556.304 610.81 554.156C614.922 551.925 619.304 550.231 623.848 549.117C628.714 547.922 633.708 547.331 638.719 547.355C644.006 547.353 649.273 548.004 654.4 549.293C657.149 549.974 660.016 550.82 663 551.83C665.984 552.84 669.144 554.05 672.479 555.46V570.612C669.611 568.924 666.659 567.383 663.634 565.996C660.909 564.749 658.108 563.679 655.247 562.79C652.551 561.956 649.794 561.331 647.002 560.922C644.212 560.52 641.397 560.319 638.579 560.322C633.229 560.268 627.919 561.237 622.933 563.176C618.318 564.966 614.093 567.634 610.494 571.033C606.972 574.4 604.178 578.454 602.284 582.944C600.277 587.716 599.269 592.849 599.323 598.026C599.262 603.208 600.245 608.349 602.213 613.143C604.061 617.608 606.836 621.63 610.354 624.943C613.992 628.318 618.27 630.93 622.934 632.626C628.128 634.511 633.619 635.442 639.144 635.374C644.99 635.341 650.794 634.39 656.344 632.556C662.42 630.557 668.204 627.76 673.544 624.24L673.532 639.76Z" fill="black" stroke="black" stroke-width="5" stroke-miterlimit="10"/>
<path d="M794.752 548.633V561.319H760.711V647.09H746.545V561.319H712.5V548.633H794.752Z" fill="black" stroke="black" stroke-width="5" stroke-miterlimit="10"/>
<path d="M833.724 597.9C833.691 591.254 834.973 584.667 837.495 578.518C839.952 572.496 843.581 567.024 848.172 562.418C852.941 557.679 858.608 553.939 864.84 551.418C871.747 548.64 879.138 547.263 886.582 547.366C894.107 547.253 901.58 548.63 908.571 551.418C914.802 553.923 920.469 557.649 925.238 562.378C929.809 566.967 933.405 572.432 935.81 578.446C940.719 590.811 940.744 604.579 935.88 616.962C933.504 622.975 929.945 628.45 925.414 633.062C920.638 637.859 914.946 641.646 908.676 644.197C901.57 647.066 893.961 648.479 886.299 648.355C881.212 648.388 876.142 647.761 871.217 646.488C866.713 645.323 862.387 643.557 858.355 641.237C854.541 639.03 851.044 636.316 847.96 633.168C841.889 626.988 837.55 619.319 835.379 610.933C834.272 606.677 833.716 602.297 833.724 597.9V597.9ZM848.312 597.9C848.264 603.012 849.247 608.081 851.202 612.805C853.045 617.289 855.778 621.353 859.237 624.751C862.695 628.15 866.807 630.811 871.323 632.575C881.161 636.333 892.038 636.333 901.876 632.575C906.401 630.819 910.521 628.161 913.987 624.762C917.452 621.363 920.189 617.295 922.032 612.805C925.885 603.193 925.885 592.465 922.032 582.853C920.189 578.398 917.468 574.359 914.032 570.977C910.54 567.587 906.407 564.927 901.875 563.154C892.037 559.396 881.16 559.396 871.322 563.154C866.803 564.933 862.683 567.592 859.2 570.977C855.763 574.358 853.042 578.397 851.2 582.853C849.237 587.624 848.255 592.741 848.312 597.9V597.9Z" fill="black" stroke="black" stroke-width="5" stroke-miterlimit="10"/>
</svg>
