<svg xmlns="http://www.w3.org/2000/svg" width="48" height="48" viewBox="0 0 48 48">
  <title>фен</title>
  <g>
    <path d="M12.127,7.991a1.044,1.044,0,0,0-1.044,1.044v6.454a1.044,1.044,0,0,0,2.089,0V9.036A1.044,1.044,0,0,0,12.127,7.991Z" fill="#121212"/>
    <path d="M47.56.455A1.035,1.035,0,0,0,46.611.32C42.8,1.655,39.99,3.871,38.736,6.464H35.21l-7.5-2.41a24.536,24.536,0,0,0-6.633-.912H6.481A3.049,3.049,0,0,0,3.436,6.187v.268A6.263,6.263,0,0,0,0,12.332a6.188,6.188,0,0,0,3.436,5.745v.262a3.049,3.049,0,0,0,3.045,3.046h4.348V43.532a1.043,1.043,0,0,0,.472.873,8.9,8.9,0,0,0,3.607,1.434V46.7A1.044,1.044,0,1,0,17,46.7v-.857A8.9,8.9,0,0,0,20.6,44.4a1.043,1.043,0,0,0,.472-.873v-19.1l1.527-3.1a24.669,24.669,0,0,0,5.144-.873l7.464-2.4h3.522c1.3,2.756,4.186,5.033,7.922,6.159a1.044,1.044,0,0,0,1.346-1V1.306A1.044,1.044,0,0,0,47.56.455ZM12.918,42.948V21.384H20.25l-1.156,2.349a1.043,1.043,0,0,0-.107.46v4.949H17.369a1.044,1.044,0,0,0,0,2.089h1.617V33.8H17.369a1.044,1.044,0,1,0,0,2.089h1.617v7.063A5.721,5.721,0,0,1,12.918,42.948ZM27.144,18.459a22.429,22.429,0,0,1-6.069.836H6.481a.958.958,0,0,1-.957-.957V6.187a.958.958,0,0,1,.957-.956H21.075a22.391,22.391,0,0,1,6.032.823L33.93,8.246v8.034Zm8.875-9.906h2.767a9.658,9.658,0,0,1,.021,7.42H36.019Zm9.893,13.191a9.691,9.691,0,0,1-5.35-4.686,11.376,11.376,0,0,0,0-9.565c1.049-2.328,3.526-3.828,5.352-4.647Z" fill="#121212"/>
  </g>
</svg>
