<svg xmlns="http://www.w3.org/2000/svg" width="48" height="48" viewBox="0 0 48 48">
  <title>стиральная машина</title>
  <g>
    <path d="M42.267,0H5.733a1.05,1.05,0,0,0-1.05,1.05v45.9A1.05,1.05,0,0,0,5.733,48H42.267a1.05,1.05,0,0,0,1.05-1.05V1.05A1.05,1.05,0,0,0,42.267,0ZM6.783,2.1H41.217v8.648H6.783Zm0,10.747H41.217v27.7H30.674a1.05,1.05,0,0,0-1.05,1.05V45.9H6.783ZM31.723,45.9V42.642h9.493V45.9Z" fill="#121212"/>
    <path d="M14.1,5.373h-1.98a1.05,1.05,0,1,0,0,2.1H14.1a1.05,1.05,0,1,0,0-2.1Z" fill="#121212"/>
    <path d="M20.416,5.373h-1.98a1.05,1.05,0,1,0,0,2.1h1.98a1.05,1.05,0,0,0,0-2.1Z" fill="#121212"/>
    <circle cx="27.255" cy="6.423" r="2.652" fill="#121212"/>
    <circle cx="34.716" cy="6.423" r="2.652" fill="#121212"/>
    <path d="M34.058,32.705a1.049,1.049,0,0,0-1.881-.932,9.123,9.123,0,1,1,0-8.1,1.049,1.049,0,0,0,1.881-.932,11.222,11.222,0,1,0,0,9.962Z" fill="#121212"/>
    <path d="M17.633,27.724A6.367,6.367,0,1,0,24,21.357,6.374,6.374,0,0,0,17.633,27.724Zm10.634,0A4.267,4.267,0,1,1,24,23.457,4.272,4.272,0,0,1,28.267,27.724Z" fill="#121212"/>
    <path d="M31.582,27.724a1.05,1.05,0,0,0,1.05,1.05h2.057a1.05,1.05,0,1,0,0-2.1H32.631A1.05,1.05,0,0,0,31.582,27.724Z" fill="#121212"/>
  </g>
</svg>
