<svg xmlns="http://www.w3.org/2000/svg" width="48" height="48" viewBox="0 0 48 48">
  <title>телевизор</title>
  <g>
    <path d="M41.478,5.577H6.521A6.529,6.529,0,0,0,0,12.1V29.713a6.529,6.529,0,0,0,6.521,6.522H41.478A6.529,6.529,0,0,0,48,29.713V12.1A6.529,6.529,0,0,0,41.478,5.577ZM45.91,29.713a4.436,4.436,0,0,1-4.431,4.431H6.521A4.435,4.435,0,0,1,2.09,29.713V12.1A4.435,4.435,0,0,1,6.521,7.668H41.478A4.436,4.436,0,0,1,45.91,12.1Z" fill="#121212"/>
    <path d="M39.533,40.332H8.466a1.045,1.045,0,0,0,0,2.09H39.533a1.045,1.045,0,0,0,0-2.09Z" fill="#121212"/>
  </g>
</svg>
