<svg xmlns="http://www.w3.org/2000/svg" width="48" height="48" viewBox="0 0 48 48">
  <title>душ</title>
  <g>
    <path d="M39.912,17.313A11.481,11.481,0,0,0,29.581,7.464V3.68A3.684,3.684,0,0,0,25.9,0H8.553a3.684,3.684,0,0,0-3.68,3.68V46.955a1.045,1.045,0,1,0,2.09,0V3.68A1.591,1.591,0,0,1,8.553,2.09H25.9A1.591,1.591,0,0,1,27.49,3.68V7.464a11.48,11.48,0,0,0-10.331,9.849,3.316,3.316,0,0,0,.106,6.631H39.806a3.316,3.316,0,0,0,.107-6.631ZM28.535,9.5a9.394,9.394,0,0,1,9.26,7.8H19.276A9.393,9.393,0,0,1,28.535,9.5Zm11.271,12.35H17.265a1.231,1.231,0,1,1,0-2.461H39.806a1.231,1.231,0,1,1,0,2.461Z" fill="#121212"/>
    <path d="M19.944,27.644A1.045,1.045,0,0,0,18.9,28.689v2.92a1.045,1.045,0,0,0,2.09,0v-2.92A1.045,1.045,0,0,0,19.944,27.644Z" fill="#121212"/>
    <path d="M19.944,36.315A1.045,1.045,0,0,0,18.9,37.36v2.92a1.045,1.045,0,1,0,2.09,0V37.36A1.045,1.045,0,0,0,19.944,36.315Z" fill="#121212"/>
    <path d="M25.672,27.644a1.045,1.045,0,0,0-1.045,1.045v2.92a1.045,1.045,0,0,0,2.09,0v-2.92A1.045,1.045,0,0,0,25.672,27.644Z" fill="#121212"/>
    <path d="M25.672,36.315a1.045,1.045,0,0,0-1.045,1.045v2.92a1.045,1.045,0,1,0,2.09,0V37.36A1.045,1.045,0,0,0,25.672,36.315Z" fill="#121212"/>
    <path d="M31.4,27.644a1.045,1.045,0,0,0-1.045,1.045v2.92a1.045,1.045,0,0,0,2.09,0v-2.92A1.045,1.045,0,0,0,31.4,27.644Z" fill="#121212"/>
    <path d="M31.4,36.315a1.045,1.045,0,0,0-1.045,1.045v2.92a1.045,1.045,0,1,0,2.09,0V37.36A1.045,1.045,0,0,0,31.4,36.315Z" fill="#121212"/>
    <path d="M37.127,27.644a1.045,1.045,0,0,0-1.045,1.045v2.92a1.045,1.045,0,0,0,2.09,0v-2.92A1.045,1.045,0,0,0,37.127,27.644Z" fill="#121212"/>
    <path d="M37.127,36.315a1.045,1.045,0,0,0-1.045,1.045v2.92a1.045,1.045,0,1,0,2.09,0V37.36A1.045,1.045,0,0,0,37.127,36.315Z" fill="#121212"/>
  </g>
</svg>
